<svg xmlns="http://www.w3.org/2000/svg" xmlns:xlink="http://www.w3.org/1999/xlink" width="275" height="36" viewBox="0 0 275 36">
    <defs>
        <path id="qw298kc2ha" d="M0.581 0.012L29.68 0.012 29.68 34.857 0.581 34.857z"/>
    </defs>
    <g fill="none" fill-rule="evenodd">
        <g>
            <g>
                <g transform="translate(-55 -56) translate(55 56) translate(245 1)">
                    <mask id="66fsyeutkb" fill="#fff">
                        <use xlink:href="#qw298kc2ha"/>
                    </mask>
                    <path fill="#000" d="M18.045.012h-5.827L.581 34.845h5.534c-.007-.001 2.52-8.226 2.52-8.226h12.996l2.516 8.23 5.534.008L18.045.012zM9.997 22.224L15.08 5.53h.077l5.099 16.702-10.26-.008z" mask="url(#66fsyeutkb)"/>
                </g>
                <path fill="#000" d="M18.501 2.222s-.108.33-1.636 4.68C12.5 3.25 5.18 3.515 5.18 9.131c0 6.585 15.284 5.76 14.81 17.517C19.607 36.092 8.538 38.26 0 33.709c.746-1.664 1.522-3.267 2.051-4.578 6.458 4.006 12.017 2.168 12.931-1.055C17.477 19.253.068 21.978.068 9.47c0-5.262 5.802-13.444 18.433-7.248M37.004 1L59 1 58.997 5.652 42.494 5.652 42.494 15.182 54.187 15.182 54.187 19.577 42.494 19.577 42.494 31.441 58.979 31.441 58.979 36 37 36zM137.748 15.165L137.748 1 143 1 143 36 137.748 36 137.748 19.546 120.247 19.546 120.247 36 115 36 115 1 120.247 1 120.247 15.165zM176 0c-10.173 0-18.374 8.44-17.987 18.697.351 9.266 8.014 16.934 17.278 17.29C185.553 36.38 194 28.176 194 18 194 8.061 185.939 0 176 0m0 31.274c-7.018 0-12.7-5.945-12.7-13.273 0-7.332 5.682-13.274 12.7-13.274 7.016 0 12.7 5.942 12.7 13.274 0 7.328-5.684 13.273-12.7 13.273M86.264 1.003H77L77.011 36h5.34s.005-6.69.005-13.28c0 0 4.4.023 5.874-.105 4.791-.419 11.77-1.68 11.77-11.277C100 .562 88.211 1.003 86.264 1.003m-.203 17.336c-1.63.004-2.37.004-3.705 0V5.419l3.167-.007c1.392 0 9.494-.427 9.717 5.971.227 6.44-6.186 6.948-9.18 6.956M236 36l-10.116-14.455c3.451-1.245 6.474-3.952 6.474-10.214 0-10.767-11.969-10.329-13.948-10.329H209l.013 34.97h5.422s.004-6.688.001-13.267c0 0 4.623.02 6.04-.118l.005.001L229.434 36H236zm-21.564-17.676c.003-6.524 0-12.908 0-12.908l3.222-.006c1.41 0 9.639-.429 9.869 5.964.225 6.434-6.29 6.946-9.326 6.95-1.655.003-2.408.003-3.765 0z" transform="translate(-55 -56) translate(55 56)"/>
            </g>
        </g>
    </g>
</svg>
